<svg width="27" height="28" viewBox="0 0 27 28" fill="none" xmlns="http://www.w3.org/2000/svg">
<path d="M18.276 9.6427V7.50504C18.276 6.83892 18.1466 6.17932 17.8952 5.56391C17.6438 4.94849 17.2754 4.38931 16.8109 3.9183C16.3464 3.44728 15.795 3.07365 15.1881 2.81873C14.5812 2.56382 13.9308 2.43262 13.2739 2.43262C12.617 2.43262 11.9665 2.56382 11.3597 2.81873C10.7528 3.07365 10.2014 3.44728 9.73687 3.9183C9.27238 4.38931 8.90393 4.94849 8.65255 5.56391C8.40118 6.17932 8.27179 6.83892 8.27179 7.50504V12.5775C8.27179 12.7696 8.34708 12.954 8.48109 13.0899C8.6151 13.2257 8.79686 13.3021 8.98638 13.3021C9.1759 13.3021 9.35765 13.2257 9.49166 13.0899C9.62567 12.954 9.70096 12.7696 9.70096 12.5775V11.092H15.4176V9.6427H9.70096V7.50504C9.70096 6.54412 10.0774 5.62255 10.7474 4.94308C11.4175 4.26361 12.3263 3.88188 13.2739 3.88188C14.2215 3.88188 15.1303 4.26361 15.8003 4.94308C16.4704 5.62255 16.8468 6.54412 16.8468 7.50504V12.5412C16.8468 12.7334 16.9221 12.9177 17.0561 13.0536C17.1901 13.1895 17.3719 13.2659 17.5614 13.2659C17.7509 13.2659 17.9326 13.1895 18.0667 13.0536C18.2007 12.9177 18.276 12.7334 18.276 12.5412V11.092H21.8489V24.1353H4.69888V11.092H6.84263V9.6427H3.26971V24.2006C3.26971 24.5676 3.41351 24.9197 3.66947 25.1792C3.92543 25.4388 4.27259 25.5846 4.63457 25.5846H21.9132C22.2752 25.5846 22.6223 25.4388 22.8783 25.1792C23.1342 24.9197 23.278 24.5676 23.278 24.2006V9.6427H18.276Z" fill="#2B2E34"/>
<path fill-rule="evenodd" clip-rule="evenodd" d="M6.84261 9.64261V11.0919H4.69886V24.1352H21.8488V11.0919H18.2759V12.5411C18.2759 12.7333 18.2006 12.9176 18.0666 13.0535C17.9326 13.1894 17.7509 13.2658 17.5613 13.2658C17.3718 13.2658 17.1901 13.1894 17.0561 13.0535C16.9221 12.9176 16.8468 12.7333 16.8468 12.5411V7.50494C16.8468 6.54402 16.4703 5.62246 15.8003 4.94298C15.1302 4.26351 14.2214 3.88178 13.2739 3.88178C12.3263 3.88178 11.4175 4.26351 10.7474 4.94298C10.0774 5.62246 9.70094 6.54402 9.70094 7.50494V9.64261H15.4176V11.0919H9.70094V12.5774C9.70094 12.7695 9.62565 12.9539 9.49164 13.0898C9.35763 13.2257 9.17588 13.302 8.98636 13.302C8.79684 13.302 8.61508 13.2257 8.48107 13.0898C8.34706 12.9539 8.27177 12.7695 8.27177 12.5774V7.50494C8.27177 6.83882 8.40116 6.17922 8.65253 5.56381C8.90391 4.94839 9.27236 4.38922 9.73685 3.9182C10.2013 3.44718 10.7528 3.07355 11.3596 2.81863C11.9665 2.56372 12.617 2.43252 13.2739 2.43252C13.9307 2.43252 14.5812 2.56372 15.1881 2.81863C15.7949 3.07355 16.3464 3.44718 16.8109 3.9182C17.2753 4.38922 17.6438 4.94839 17.8952 5.56381C18.1466 6.17922 18.2759 6.83882 18.2759 7.50494V9.64261H23.278V24.2005C23.278 24.5675 23.1342 24.9196 22.8783 25.1791C22.6223 25.4387 22.2751 25.5845 21.9132 25.5845H4.63455C4.27257 25.5845 3.92541 25.4387 3.66945 25.1791C3.41349 24.9196 3.26969 24.5675 3.26969 24.2005V9.64261H6.84261ZM18.3745 9.54261H23.3766V24.2005C23.3766 24.5941 23.2224 24.9715 22.948 25.2498C22.6735 25.5282 22.3013 25.6845 21.9132 25.6845H4.63455C4.24641 25.6845 3.87417 25.5282 3.59972 25.2498C3.32527 24.9715 3.17108 24.5941 3.17108 24.2005V9.54261H6.94122V11.1919H4.79747V24.0352H21.7502V11.1919H18.3745V12.5411C18.3745 12.7598 18.2889 12.9696 18.1364 13.1242C17.9839 13.2789 17.777 13.3658 17.5613 13.3658C17.3457 13.3658 17.1388 13.2789 16.9863 13.1242C16.8338 12.9696 16.7482 12.7598 16.7482 12.5411V7.50494C16.7482 6.57054 16.3821 5.67441 15.7306 5.01369C15.079 4.35297 14.1953 3.98178 13.2739 3.98178C12.3524 3.98178 11.4687 4.35297 10.8172 5.01369C10.1656 5.67441 9.79955 6.57054 9.79955 7.50494V9.54261H15.5162V11.1919H9.79955V12.5774C9.79955 12.7961 9.71388 13.0058 9.56137 13.1605C9.40887 13.3151 9.20203 13.402 8.98636 13.402C8.77068 13.402 8.56384 13.3151 8.41134 13.1605C8.25884 13.0058 8.17316 12.7961 8.17316 12.5774V7.50494C8.17316 6.82569 8.30509 6.15309 8.56143 5.52554C8.81776 4.89799 9.19348 4.32779 9.66712 3.84749C10.1408 3.36718 10.7031 2.98619 11.3219 2.72625C11.9407 2.46631 12.604 2.33252 13.2739 2.33252C13.9437 2.33252 14.607 2.46631 15.2258 2.72625C15.8446 2.98619 16.4069 3.36718 16.8806 3.84749C17.3542 4.32779 17.7299 4.89799 17.9863 5.52554C18.2426 6.15309 18.3745 6.82569 18.3745 7.50494V9.54261Z" fill="#2B2E34"/>
</svg>
