<svg width="34" height="25" viewBox="0 0 34 25" fill="none" xmlns="http://www.w3.org/2000/svg">
<path d="M8.58812 18.7742H5.03315C4.46671 18.7742 4.00769 19.2397 4.00769 19.8141C4.00769 20.3885 4.46678 20.8539 5.03315 20.8539H8.58819C9.15462 20.8539 9.61365 20.3884 9.61365 19.8141C9.61365 19.2396 9.15456 18.7742 8.58812 18.7742Z" fill="#2B2E34" fill-opacity="0.12" stroke="white" stroke-width="0.3"/>
<path fill-rule="evenodd" clip-rule="evenodd" d="M31.517 9.9197L33.4291 12.4169C33.5685 12.5992 33.6444 12.8239 33.6444 13.0547V19.8141C33.6443 20.3884 33.1853 20.8539 32.6189 20.8539H29.6443C29.1761 22.6286 27.5769 23.9392 25.681 23.9392C23.7853 23.9392 22.1859 22.6286 21.7177 20.854H15.6285C15.1602 22.6286 13.5608 23.9392 11.6652 23.9392C9.40324 23.9392 7.56311 22.0732 7.56311 19.7795C7.56311 17.4859 9.40324 15.6199 11.6652 15.6199C13.5853 15.6199 15.2015 16.9646 15.6461 18.7742H21.7001C22.1446 16.9646 23.7608 15.6199 25.681 15.6199C27.6011 15.6199 29.2173 16.9646 29.6618 18.7742H31.5934V13.411L30.1 11.4601H22.1247C21.5583 11.4601 21.0992 10.9946 21.0992 10.4202V3.14081H5.03315C4.46678 3.14081 4.00769 2.67526 4.00769 2.10092C4.00769 1.52658 4.46672 1.06104 5.03315 1.06104H22.1247C22.6911 1.06104 23.1502 1.52652 23.1502 2.10092V3.14087H27.5269C27.9145 3.14087 28.269 3.36239 28.4433 3.71354L31.5198 9.91831L31.517 9.9197ZM28.9568 9.38032L26.8945 5.22071H23.1502V9.38032H28.9568ZM27.7319 19.7638C27.7235 18.624 26.8069 17.6997 25.681 17.6997C24.5499 17.6997 23.63 18.6325 23.63 19.7795C23.63 20.9266 24.5499 21.8594 25.681 21.8594C26.7917 21.8594 27.6988 20.9599 27.7311 19.8413C27.7308 19.8322 27.7307 19.8232 27.7307 19.8141C27.7307 19.7972 27.7311 19.7804 27.7319 19.7638ZM11.6652 21.8594C10.534 21.8594 9.61414 20.9266 9.61414 19.7795C9.61414 18.6325 10.534 17.6997 11.6652 17.6997C12.796 17.6997 13.7162 18.6325 13.7162 19.7795C13.7162 20.9266 12.7963 21.8594 11.6652 21.8594Z" fill="#2B2E34"/>
<path d="M33.4291 12.4169L33.5482 12.3258L33.5482 12.3257L33.4291 12.4169ZM31.517 9.9197L31.4489 9.78606L31.2884 9.86787L31.398 10.0109L31.517 9.9197ZM33.6444 19.8141L33.7944 19.8141V19.8141H33.6444ZM29.6443 20.8539V20.7039H29.5287L29.4992 20.8157L29.6443 20.8539ZM21.7177 20.854L21.8627 20.8157L21.8333 20.704H21.7177V20.854ZM15.6285 20.854V20.704H15.5129L15.4835 20.8157L15.6285 20.854ZM15.6461 18.7742L15.5004 18.81L15.5285 18.9242H15.6461V18.7742ZM21.7001 18.7742V18.9242H21.8177L21.8458 18.81L21.7001 18.7742ZM29.6618 18.7742L29.5162 18.8099L29.5442 18.9242H29.6618V18.7742ZM31.5934 18.7742V18.9242H31.7434V18.7742H31.5934ZM31.5934 13.411H31.7434V13.3601L31.7125 13.3198L31.5934 13.411ZM30.1 11.4601L30.2191 11.3689L30.174 11.3101H30.1V11.4601ZM21.0992 3.14081H21.2492V2.99081H21.0992V3.14081ZM23.1502 3.14087H23.0002V3.29087H23.1502V3.14087ZM28.4433 3.71354L28.5777 3.6469L28.5777 3.64683L28.4433 3.71354ZM31.5198 9.91831L31.5879 10.0519L31.7201 9.98458L31.6542 9.85168L31.5198 9.91831ZM26.8945 5.22071L27.0289 5.15408L26.9875 5.07071H26.8945V5.22071ZM28.9568 9.38032V9.53032H29.1986L29.0912 9.31369L28.9568 9.38032ZM23.1502 5.22071V5.07071H23.0002V5.22071H23.1502ZM23.1502 9.38032H23.0002V9.53032H23.1502V9.38032ZM27.7319 19.7638L27.882 19.7708L27.8819 19.7627L27.7319 19.7638ZM27.7311 19.8413L27.8812 19.8456L27.881 19.8375L27.7311 19.8413ZM33.5482 12.3257L31.6361 9.82851L31.398 10.0109L33.31 12.5081L33.5482 12.3257ZM33.7944 13.0547C33.7944 12.7911 33.7078 12.5344 33.5482 12.3258L33.3099 12.508C33.4293 12.6641 33.4944 12.8566 33.4944 13.0547H33.7944ZM33.7944 19.8141V13.0547H33.4944V19.8141H33.7944ZM32.6189 21.0039C33.2701 21.0039 33.7943 20.4692 33.7944 19.8141L33.4944 19.814C33.4944 20.3075 33.1005 20.7039 32.6189 20.7039V21.0039ZM29.6443 21.0039H32.6189V20.7039H29.6443V21.0039ZM29.4992 20.8157C29.0477 22.5275 27.5057 23.7892 25.681 23.7892V24.0892C27.6481 24.0892 29.3046 22.7297 29.7893 20.8922L29.4992 20.8157ZM25.681 23.7892C23.8565 23.7892 22.3144 22.5275 21.8627 20.8157L21.5727 20.8923C22.0575 22.7297 23.7141 24.0892 25.681 24.0892V23.7892ZM21.7177 20.704H15.6285V21.004H21.7177V20.704ZM15.4835 20.8157C15.0318 22.5275 13.4896 23.7892 11.6652 23.7892V24.0892C13.632 24.0892 15.2887 22.7297 15.7735 20.8923L15.4835 20.8157ZM11.6652 23.7892C9.48805 23.7892 7.71311 21.9924 7.71311 19.7795H7.41311C7.41311 22.1541 9.31843 24.0892 11.6652 24.0892V23.7892ZM7.71311 19.7795C7.71311 17.5667 9.48805 15.7699 11.6652 15.7699V15.4699C9.31843 15.4699 7.41311 17.405 7.41311 19.7795H7.71311ZM11.6652 15.7699C13.5132 15.7699 15.0716 17.0644 15.5004 18.81L15.7918 18.7384C15.3315 16.8648 13.6574 15.4699 11.6652 15.4699V15.7699ZM15.6461 18.9242H21.7001V18.6242H15.6461V18.9242ZM21.8458 18.81C22.2746 17.0644 23.8329 15.7699 25.681 15.7699V15.4699C23.6887 15.4699 22.0147 16.8648 21.5544 18.7384L21.8458 18.81ZM25.681 15.7699C27.529 15.7699 29.0874 17.0644 29.5162 18.8099L29.8075 18.7384C29.3472 16.8648 27.6732 15.4699 25.681 15.4699V15.7699ZM31.5934 18.6242H29.6618V18.9242H31.5934V18.6242ZM31.4434 13.411V18.7742H31.7434V13.411H31.4434ZM29.9809 11.5513L31.4743 13.5021L31.7125 13.3198L30.2191 11.3689L29.9809 11.5513ZM22.1247 11.6101H30.1V11.3101H22.1247V11.6101ZM20.9492 10.4202C20.9492 11.0755 21.4735 11.6101 22.1247 11.6101V11.3101C21.6431 11.3101 21.2492 10.9137 21.2492 10.4202H20.9492ZM20.9492 3.14081V10.4202H21.2492V3.14081H20.9492ZM5.03315 3.29081H21.0992V2.99081H5.03315V3.29081ZM3.85769 2.10092C3.85769 2.75612 4.38197 3.29081 5.03315 3.29081V2.99081C4.55159 2.99081 4.15769 2.5944 4.15769 2.10092H3.85769ZM5.03315 0.911035C4.3819 0.911035 3.85769 1.44572 3.85769 2.10092H4.15769C4.15769 1.60743 4.55153 1.21104 5.03315 1.21104V0.911035ZM22.1247 0.911035H5.03315V1.21104H22.1247V0.911035ZM23.3002 2.10092C23.3002 1.44565 22.7759 0.911035 22.1247 0.911035V1.21104C22.6063 1.21104 23.0002 1.60738 23.0002 2.10092H23.3002ZM23.3002 3.14087V2.10092H23.0002V3.14087H23.3002ZM27.5269 2.99087H23.1502V3.29087H27.5269V2.99087ZM28.5777 3.64683C28.3784 3.24541 27.9723 2.99087 27.5269 2.99087V3.29087C27.8567 3.29087 28.1596 3.47938 28.309 3.78024L28.5777 3.64683ZM31.6542 9.85168L28.5777 3.6469L28.309 3.78017L31.3854 9.98494L31.6542 9.85168ZM31.5852 10.0533L31.5879 10.0519L31.4516 9.78467L31.4489 9.78606L31.5852 10.0533ZM26.7601 5.28734L28.8224 9.44695L29.0912 9.31369L27.0289 5.15408L26.7601 5.28734ZM23.1502 5.37071H26.8945V5.07071H23.1502V5.37071ZM23.3002 9.38032V5.22071H23.0002V9.38032H23.3002ZM28.9568 9.23032H23.1502V9.53032H28.9568V9.23032ZM27.8819 19.7627C27.8729 18.5425 26.8913 17.5497 25.681 17.5497V17.8497C26.7225 17.8497 27.5741 18.7055 27.5819 19.7649L27.8819 19.7627ZM25.681 17.5497C24.4651 17.5497 23.48 18.5517 23.48 19.7795H23.78C23.78 18.7134 24.6347 17.8497 25.681 17.8497V17.5497ZM23.48 19.7795C23.48 21.0074 24.4651 22.0094 25.681 22.0094V21.7094C24.6347 21.7094 23.78 20.8457 23.78 19.7795H23.48ZM25.681 22.0094C26.875 22.0094 27.8464 21.0432 27.881 19.8456L27.5811 19.8369C27.5511 20.8766 26.7084 21.7094 25.681 21.7094V22.0094ZM27.5807 19.8141C27.5807 19.8244 27.5809 19.8348 27.5811 19.8451L27.881 19.8375C27.8808 19.8297 27.8807 19.8219 27.8807 19.8141H27.5807ZM27.5821 19.7567C27.5812 19.7757 27.5807 19.7948 27.5807 19.8141H27.8807C27.8807 19.7995 27.8811 19.7851 27.8817 19.7708L27.5821 19.7567ZM9.46414 19.7795C9.46414 21.0074 10.4492 22.0094 11.6652 22.0094V21.7094C10.6189 21.7094 9.76414 20.8457 9.76414 19.7795H9.46414ZM11.6652 17.5497C10.4492 17.5497 9.46414 18.5517 9.46414 19.7795H9.76414C9.76414 18.7134 10.6189 17.8497 11.6652 17.8497V17.5497ZM13.8662 19.7795C13.8662 18.5517 12.8808 17.5497 11.6652 17.5497V17.8497C12.7112 17.8497 13.5662 18.7134 13.5662 19.7795H13.8662ZM11.6652 22.0094C12.8811 22.0094 13.8662 21.0075 13.8662 19.7795H13.5662C13.5662 20.8458 12.7115 21.7094 11.6652 21.7094V22.0094Z" fill="white"/>
<path d="M8.52171 13.5051H3.8044C3.23796 13.5051 2.77893 13.9707 2.77893 14.545C2.77893 15.1194 3.23802 15.5849 3.8044 15.5849H8.52165C9.08809 15.5849 9.54712 15.1194 9.54712 14.545C9.54718 13.9707 9.08809 13.5051 8.52171 13.5051Z" fill="#2B2E34" fill-opacity="0.3" stroke="white" stroke-width="0.3"/>
<path d="M10.8797 9.41504H2.12874C1.56236 9.41504 1.10327 9.88058 1.10327 10.455C1.10327 11.0294 1.56236 11.4949 2.12874 11.4949H10.8797C11.4461 11.4949 11.9052 11.0293 11.9052 10.455C11.9052 9.88065 11.4461 9.41504 10.8797 9.41504Z" fill="#2B2E34" fill-opacity="0.6" stroke="white" stroke-width="0.3"/>
<path d="M12.5553 5.32471H3.8044C3.23796 5.32471 2.77893 5.79025 2.77893 6.36459C2.77893 6.939 3.23802 7.40448 3.8044 7.40448H12.5553C13.1218 7.40448 13.5808 6.93894 13.5808 6.36459C13.5809 5.79025 13.1218 5.32471 12.5553 5.32471Z" fill="#2B2E34" fill-opacity="0.8" stroke="white" stroke-width="0.3"/>
</svg>
