<svg width="22" height="24" viewBox="0 0 22 24" fill="none" xmlns="http://www.w3.org/2000/svg">
<path d="M19.2993 10.0941H19.2432V8.7599C19.2432 4.47423 15.6614 1 11.243 1C6.82454 1 3.24278 4.47423 3.24278 8.7599V10.0941H2.90595C1.67082 10.0941 0.716428 11.1559 0.716428 12.3812V15.7847C0.685319 16.9722 1.65266 17.9594 2.87699 17.9896C2.88666 17.9898 2.89628 17.99 2.90595 17.9901H4.98318C5.2774 17.9767 5.50473 17.7344 5.49087 17.449C5.49038 17.4388 5.48958 17.4285 5.48845 17.4183V10.7475C5.48845 10.4208 5.29196 10.094 4.98318 10.094H4.36562V8.75985C4.36562 5.0757 7.44473 2.08906 11.243 2.08906C15.0412 2.08906 18.1203 5.0757 18.1203 8.75985V10.094H17.5028C17.194 10.094 16.9975 10.4207 16.9975 10.7475V17.4183C16.9662 17.7024 17.1782 17.9573 17.4711 17.9877C17.4816 17.9888 17.4922 17.9896 17.5028 17.99H18.1484L18.0922 18.0717C17.2499 19.1575 15.9282 19.7935 14.5272 19.787C14.2205 18.3284 12.7528 17.387 11.2489 17.6845C9.96292 17.9389 9.03571 19.0313 9.02534 20.3044C9.04071 21.7975 10.293 23 11.8324 22.9999C12.5945 22.9879 13.3208 22.6846 13.8535 22.1558C14.2129 21.7988 14.4484 21.3419 14.5272 20.8489C16.2816 20.8553 17.9361 20.058 18.9905 18.6979L19.5238 17.9355C20.7309 17.8539 21.4888 17.1187 21.4888 16.0568V12.6533C21.4888 11.4827 20.5906 10.0941 19.2993 10.0941ZM4.36562 16.901H2.90595C2.3015 16.8867 1.82341 16.3999 1.83813 15.8136C1.8384 15.8039 1.83878 15.7943 1.83926 15.7846V12.3811C1.83926 11.7549 2.28839 11.1831 2.90595 11.1831H4.36562V16.901V16.901ZM13.0395 21.3935C12.7284 21.7207 12.2913 21.9081 11.8325 21.9109C10.9192 21.8968 10.1781 21.1899 10.1482 20.3044C10.1479 19.4172 10.8891 18.6977 11.8037 18.6973C12.7184 18.697 13.4602 19.4159 13.4606 20.3031C13.4606 20.3035 13.4606 20.304 13.4606 20.3044C13.484 20.7087 13.3312 21.1039 13.0395 21.3935ZM20.366 16.0569C20.366 16.792 19.6361 16.901 19.2993 16.901H18.1203V11.1832H19.2993C19.9169 11.1832 20.366 12.0272 20.366 12.6534V16.0569Z" fill="#2B2E34"/>
<path fill-rule="evenodd" clip-rule="evenodd" d="M2.90523 17.9901L2.87627 17.9896C1.65196 17.9594 0.684622 16.9722 0.715731 15.7847V12.3812C0.715731 11.1559 1.67012 10.0941 2.90523 10.0941H3.24206V8.75993C3.24206 4.47426 6.82379 1.00003 11.2422 1.00003C15.6606 1.00003 19.2423 4.47426 19.2423 8.75993V10.0941H19.2984C20.5897 10.0941 21.4879 11.4827 21.4879 12.6534V16.0568C21.4879 17.1187 20.73 17.8539 19.523 17.9355L18.9896 18.6979C17.9352 20.058 16.2808 20.8554 14.5264 20.8489C14.4476 21.342 14.2121 21.7989 13.8527 22.1559C13.32 22.6846 12.5937 22.9879 11.8316 22.9999C10.2922 23 9.03994 21.7975 9.02457 20.3044C9.03494 19.0314 9.96214 17.9389 11.2481 17.6846C12.752 17.387 14.2197 18.3284 14.5264 19.7871C15.8667 19.7932 17.1346 19.2114 17.9794 18.2101C18.0176 18.1648 18.0549 18.1187 18.0914 18.0717L18.1475 17.9901H17.5019C17.4913 17.9896 17.4807 17.9888 17.4702 17.9877C17.1773 17.9573 16.9653 17.7024 16.9966 17.4183V10.7475C16.9966 10.4207 17.1931 10.094 17.5019 10.094H18.1195V8.75988C18.1195 5.07573 15.0404 2.08909 11.2422 2.08909C7.44398 2.08909 4.36489 5.07573 4.36489 8.75988V10.094H4.98244C5.29122 10.094 5.48771 10.4208 5.48771 10.7475V17.4183C5.48884 17.4285 5.48964 17.4388 5.49013 17.4491C5.50399 17.7344 5.27666 17.9767 4.98244 17.9901H2.90523ZM2.87051 18.2095C1.53667 18.1764 0.46595 17.0987 0.498782 15.7818V12.3812C0.498782 11.0448 1.54036 9.87409 2.90523 9.87409H3.02511V8.75993C3.02511 4.34364 6.71316 0.780029 11.2422 0.780029C15.7712 0.780029 19.4592 4.34364 19.4592 8.75993V9.88053C20.1157 9.93336 20.6625 10.3059 21.0474 10.798C21.4619 11.3281 21.7049 12.0155 21.7048 12.6534V16.0568C21.7048 16.6441 21.4937 17.1525 21.1072 17.5235C20.7438 17.8724 20.2389 18.0873 19.6415 18.1464L19.1604 18.8341C18.0994 20.2027 16.4568 21.0207 14.7045 21.0669C14.5937 21.5368 14.3517 21.9682 14.0045 22.313C13.4311 22.8822 12.6512 23.2071 11.835 23.2199L11.8316 23.22C10.1824 23.22 8.82433 21.9294 8.80763 20.3067L8.80759 20.3026C8.81887 18.9185 9.82585 17.7417 11.2066 17.4686C12.7577 17.1617 14.2859 18.0831 14.6957 19.5646C15.8461 19.5256 16.9256 19.0332 17.6881 18.2101H17.4924C17.4777 18.2094 17.4629 18.2081 17.4481 18.2066C17.0486 18.1651 16.7419 17.816 16.7797 17.4071V10.7475C16.7797 10.5426 16.8406 10.3328 16.9579 10.169C17.0772 10.0024 17.2636 9.87403 17.5019 9.87403H17.9025V8.75988C17.9025 5.20634 14.9297 2.30909 11.2422 2.30909C7.55461 2.30909 4.58183 5.20634 4.58183 8.75988V9.87403H4.98244C5.22073 9.87403 5.40718 10.0024 5.52643 10.169C5.64373 10.3329 5.70466 10.5426 5.70466 10.7475V17.4072C5.70466 17.9901 5.18078 18.1991 5.12247 18.2095M4.36489 16.901V11.1831H2.90523C2.28768 11.1831 1.83856 11.755 1.83856 12.3812V15.7846C1.83807 15.7943 1.8377 15.804 1.83743 15.8136C1.82271 16.3999 2.30079 16.8867 2.90523 16.901H4.36489ZM4.14794 16.681V11.4031H2.90523C2.4352 11.4031 2.05551 11.8463 2.05551 12.3812V15.7958L2.05431 15.8192C2.04319 16.2737 2.41556 16.6681 2.90787 16.681H4.14794ZM12.8869 21.2364C13.1349 20.9901 13.2628 20.6565 13.2432 20.3173L13.2425 20.3045L13.2428 20.3035M12.8869 21.2364L12.8825 21.2409ZM12.8825 21.2409C12.6136 21.5237 12.2338 21.6878 11.8327 21.6909ZM11.8327 21.6909C11.0289 21.6774 10.3919 21.0581 10.3644 20.3007C10.3661 19.5457 11.0003 18.9177 11.803 18.9174C12.607 18.9171 13.2425 19.547 13.2428 20.3035M11.8317 21.9109C12.2905 21.9081 12.7276 21.7208 13.0387 21.3936C13.3303 21.1039 13.4831 20.7087 13.4598 20.3045V20.3032C13.4594 19.4159 12.7176 18.697 11.8029 18.6974C10.8883 18.6977 10.1471 19.4172 10.1475 20.3045C10.1773 21.19 10.9184 21.8969 11.8317 21.9109ZM20.0646 16.3781C20.1128 16.3037 20.1482 16.2019 20.1482 16.0569V12.6535C20.1482 12.387 20.0504 12.0613 19.8826 11.8052C19.7125 11.5454 19.5035 11.4032 19.2984 11.4032H18.3364V16.681H19.2984C19.4512 16.681 19.6775 16.6552 19.8575 16.5597C19.9447 16.5134 20.0154 16.4539 20.0646 16.3781ZM19.2984 16.901C19.6353 16.901 20.3651 16.7921 20.3651 16.0569V12.6535C20.3651 12.0273 19.916 11.1832 19.2984 11.1832H18.1195V16.901H19.2984Z" fill="#2B2E34"/>
</svg>
