<svg width="210" height="17" viewBox="0 0 210 17" fill="none" xmlns="http://www.w3.org/2000/svg">
<path d="M6.23467 6.71832H16.8615V3.56263H0.0384521C0.0384521 2.40894 0.49373 1.5267 1.40429 0.915924C2.33705 0.305145 3.56963 -0.000244141 5.10203 -0.000244141H17.4612C18.1274 -0.000244141 18.7604 0.0902417 19.36 0.271213C19.9596 0.452185 20.4815 0.701021 20.9257 1.01772C21.3921 1.3118 21.7585 1.67374 22.0251 2.10355C22.2916 2.53336 22.4248 3.00841 22.4248 3.5287V13.4708C22.4248 14.0137 22.2916 14.5001 22.0251 14.9299C21.7585 15.3597 21.3921 15.733 20.9257 16.0497C20.4815 16.3437 19.9596 16.5813 19.36 16.7622C18.7604 16.9206 18.1163 16.9998 17.4279 16.9998H5.10203C4.39135 16.9998 3.72509 16.9319 3.10325 16.7962C2.50362 16.6604 1.97061 16.4568 1.50423 16.1854C1.03784 15.8913 0.6714 15.5294 0.404896 15.0996C0.1606 14.6471 0.0384521 14.1155 0.0384521 13.5047H16.8615V10.3151H6.23467V6.71832Z" fill="#2B2E34"/>
<path d="M41.6938 16.9998C41.0053 16.9998 40.4279 16.9432 39.9615 16.8301C39.5173 16.717 39.1176 16.5813 38.7622 16.4229C38.4291 16.2646 38.1293 16.0836 37.8628 15.88C37.5963 15.6764 37.3298 15.4841 37.0633 15.3031L30.0009 9.16143V13.7423C30.0009 14.353 29.8566 14.8733 29.5678 15.3031C29.3013 15.7103 28.9349 16.0383 28.4685 16.2872C28.0021 16.536 27.458 16.717 26.8362 16.8301C26.2365 16.9432 25.6036 16.9998 24.9373 16.9998H24.4376V-0.000244141H30.0009V7.49876L37.2632 -0.000244141H43.4261L35.8307 7.97381L45.9579 16.9998H41.6938Z" fill="#2B2E34"/>
<path d="M70.3448 13.5726C70.3448 14.1834 70.2116 14.7037 69.9451 15.1335C69.6786 15.5407 69.3121 15.8913 68.8457 16.1854C68.4015 16.4568 67.8685 16.6604 67.2467 16.7962C66.6249 16.9319 65.9586 16.9998 65.2479 16.9998H52.9221C52.2336 16.9998 51.5896 16.9206 50.9899 16.7622C50.3903 16.5813 49.8573 16.3437 49.3909 16.0497C48.9467 15.733 48.5914 15.371 48.3249 14.9638C48.0806 14.534 47.9585 14.0477 47.9585 13.5047V3.46083C47.9585 2.96316 48.0806 2.49942 48.3249 2.06962C48.5914 1.61719 48.9467 1.24394 49.3909 0.949856C49.8573 0.633157 50.3903 0.395632 50.9899 0.237282C51.5896 0.0789313 52.2336 -0.000244141 52.9221 -0.000244141H65.2479C66.7581 -0.000244141 67.9796 0.305145 68.9123 0.915924C69.8673 1.50408 70.3448 2.37501 70.3448 3.5287V13.5726ZM64.7815 3.56263H53.5217V13.5047H64.7815V3.56263Z" fill="#2B2E34"/>
<path d="M89.1807 16.9998V10.3151H77.9209V16.9998H72.3576V3.46083C72.3576 2.96316 72.4909 2.51073 72.7574 2.10355C73.0239 1.67374 73.3792 1.3118 73.8234 1.01772C74.2898 0.701021 74.8228 0.452185 75.4224 0.271213C76.0221 0.0902417 76.6661 -0.000244141 77.3546 -0.000244141H77.9209V6.78618H89.214V-0.000244141H94.744V16.9998H89.1807Z" fill="#2B2E34"/>
<path d="M126.757 13.5726C126.757 14.2965 126.568 14.8847 126.19 15.3371C125.835 15.7895 125.38 16.1401 124.824 16.389C124.291 16.6378 123.692 16.8075 123.025 16.898C122.381 16.9658 121.771 16.9998 121.193 16.9998H109.534V16.6604C109.534 15.8687 109.734 15.2579 110.133 14.8281C110.555 14.3757 111.033 14.059 111.566 13.878C112.121 13.6744 112.687 13.5613 113.265 13.5387C113.864 13.5161 114.331 13.5047 114.664 13.5047H121.193V10.3151H109.467C109.134 10.3151 108.679 10.3377 108.101 10.383C107.524 10.4056 106.946 10.3604 106.369 10.2473C105.814 10.1115 105.336 9.85139 104.936 9.46682C104.537 9.05964 104.337 8.43755 104.337 7.60055V0.0336896H104.803C105.159 0.0336896 105.625 0.0563108 106.202 0.101553C106.802 0.146796 107.368 0.259903 107.901 0.440874C108.457 0.621846 108.934 0.915924 109.334 1.32311C109.734 1.7303 109.933 2.31845 109.933 3.08758V6.71832H121.193V-0.000244141H126.757V13.5726Z" fill="#2B2E34"/>
<path d="M151.155 6.71832C151.155 7.91725 150.589 8.82211 149.456 9.43289C148.323 10.021 146.802 10.3151 144.892 10.3151H136.564C136.564 9.95318 136.619 9.55731 136.73 9.1275C136.864 8.67507 137.052 8.2792 137.297 7.93988C137.563 7.60055 137.907 7.31779 138.329 7.09157C138.751 6.84274 139.251 6.71832 139.828 6.71832H145.558V3.56263H134.332V13.0297C134.332 14.6132 133.854 15.699 132.899 16.2872C132.411 16.5813 131.856 16.7735 131.234 16.864C130.612 16.9545 129.979 16.9998 129.335 16.9998H128.769V-0.000244141H146.058C147.568 -0.000244141 148.79 0.305145 149.722 0.915924C150.677 1.5267 151.155 2.40894 151.155 3.56263V6.71832Z" fill="#2B2E34"/>
<path d="M153.168 3.56263C153.168 2.40894 153.634 1.5267 154.567 0.915924C155.522 0.305145 156.754 -0.000244141 158.265 -0.000244141H180.151C181.661 -0.000244141 182.883 0.305145 183.816 0.915924C184.771 1.5267 185.248 2.40894 185.248 3.56263V9.33109C185.248 10.53 184.682 11.4349 183.549 12.0457C182.417 12.6338 180.895 12.9279 178.985 12.9279H171.99V13.0297C171.99 14.6132 171.512 15.699 170.557 16.2872C170.069 16.5813 169.513 16.7735 168.892 16.864C168.27 16.9545 167.637 16.9998 166.993 16.9998H166.426V12.9279H159.431C157.521 12.9279 155.999 12.6338 154.867 12.0457C153.734 11.4349 153.168 10.53 153.168 9.33109V3.56263ZM171.99 9.33109H179.652V3.56263H171.99V9.33109ZM158.764 9.33109H166.426V3.56263H158.764V9.33109Z" fill="#2B2E34"/>
<path d="M209.648 13.5726C209.648 14.1834 209.515 14.7037 209.248 15.1335C208.982 15.5407 208.615 15.8913 208.149 16.1854C207.705 16.4568 207.172 16.6604 206.55 16.7962C205.928 16.9319 205.262 16.9998 204.551 16.9998H192.225C191.537 16.9998 190.893 16.9206 190.293 16.7622C189.693 16.5813 189.16 16.3437 188.694 16.0497C188.25 15.733 187.895 15.371 187.628 14.9638C187.384 14.534 187.262 14.0477 187.262 13.5047V3.46083C187.262 2.96316 187.384 2.49942 187.628 2.06962C187.895 1.61719 188.25 1.24394 188.694 0.949856C189.16 0.633157 189.693 0.395632 190.293 0.237282C190.893 0.0789313 191.537 -0.000244141 192.225 -0.000244141H204.551C206.061 -0.000244141 207.283 0.305145 208.215 0.915924C209.17 1.50408 209.648 2.37501 209.648 3.5287V13.5726ZM204.085 3.56263H192.825V13.5047H204.085V3.56263Z" fill="#2B2E34"/>
</svg>
