<svg width="23" height="23" viewBox="0 0 23 23" fill="none" xmlns="http://www.w3.org/2000/svg">
<path d="M19.1519 15.6163C17.8733 14.5313 16.5756 13.874 15.3127 14.9574L14.5586 15.6122C14.0068 16.0875 12.981 18.3084 9.01459 13.7814C5.04904 9.26009 7.40888 8.55612 7.96146 8.0849L8.71971 7.42928C9.97604 6.34341 9.50192 4.97644 8.59582 3.56932L8.04902 2.71702C7.13878 1.31318 6.1476 0.391214 4.88798 1.47544L4.20737 2.0655C3.65065 2.46788 2.0945 3.77584 1.71702 6.26064C1.26273 9.24206 2.69582 12.6562 5.9791 16.4022C9.25826 20.1499 12.4689 22.0324 15.5101 21.9996C18.0376 21.9725 19.5641 20.6269 20.0415 20.1376L20.7246 19.5467C21.9809 18.4633 21.2003 17.3603 19.9209 16.2727L19.1519 15.6163Z" fill="white"/>
<path d="M19.1519 15.6163C17.8733 14.5313 16.5756 13.874 15.3127 14.9574L14.5586 15.6122C14.0068 16.0875 12.981 18.3084 9.01459 13.7814C5.04904 9.26009 7.40888 8.55612 7.96146 8.0849L8.71971 7.42928C9.97604 6.34341 9.50192 4.97644 8.59582 3.56932L8.04902 2.71702C7.13878 1.31318 6.1476 0.391214 4.88798 1.47544L4.20737 2.0655C3.65065 2.46788 2.0945 3.77584 1.71702 6.26064C1.26273 9.24206 2.69582 12.6562 5.9791 16.4022C9.25826 20.1499 12.4689 22.0324 15.5101 21.9996C18.0376 21.9725 19.5641 20.6269 20.0415 20.1376L20.7246 19.5467C21.9809 18.4633 21.2003 17.3603 19.9209 16.2727L19.1519 15.6163Z" fill="url(#paint0_linear_2006_5)"/>
<path d="M19.1519 15.6163C17.8733 14.5313 16.5756 13.874 15.3127 14.9574L14.5586 15.6122C14.0068 16.0875 12.981 18.3084 9.01459 13.7814C5.04904 9.26009 7.40888 8.55612 7.96146 8.0849L8.71971 7.42928C9.97604 6.34341 9.50192 4.97644 8.59582 3.56932L8.04902 2.71702C7.13878 1.31318 6.1476 0.391214 4.88798 1.47544L4.20737 2.0655C3.65065 2.46788 2.0945 3.77584 1.71702 6.26064C1.26273 9.24206 2.69582 12.6562 5.9791 16.4022C9.25826 20.1499 12.4689 22.0324 15.5101 21.9996C18.0376 21.9725 19.5641 20.6269 20.0415 20.1376L20.7246 19.5467C21.9809 18.4633 21.2003 17.3603 19.9209 16.2727L19.1519 15.6163Z" stroke="#2B2E34" stroke-width="1.7"/>
<defs>
<linearGradient id="paint0_linear_2006_5" x1="11.4981" y1="1" x2="11.4981" y2="22" gradientUnits="userSpaceOnUse">
<stop stop-color="white"/>
<stop offset="1" stop-color="white" stop-opacity="0"/>
</linearGradient>
</defs>
</svg>
