<svg width="17" height="24" viewBox="0 0 17 24" fill="none" xmlns="http://www.w3.org/2000/svg">
<path d="M1.02102 8.69185C1.02102 4.33927 4.42947 0.85 8.55315 0.85C12.6768 0.85 16.0852 4.33926 16.0853 8.69185C16.0853 10.0156 15.6637 11.5553 14.9764 13.1672C14.2933 14.769 13.3723 16.3857 12.4302 17.8479C10.7145 20.5109 8.96407 22.6071 8.55315 23.0895C8.14224 22.6071 6.39182 20.5109 4.67607 17.8479C3.734 16.3857 2.81305 14.769 2.12995 13.1672C1.44258 11.5553 1.02102 10.0156 1.02102 8.69185ZM8.63414 23.184C8.63391 23.1837 8.63367 23.1834 8.63343 23.1831C8.63368 23.1834 8.63393 23.1837 8.63417 23.184L8.63414 23.184Z" stroke="#2B2E34" stroke-width="1.7"/>
<path d="M11.1546 8.5C11.1546 9.97479 9.97871 11.15 8.55313 11.15C7.12755 11.15 5.95168 9.97479 5.95168 8.5C5.95168 7.02521 7.12755 5.85 8.55313 5.85C9.97871 5.85 11.1546 7.02521 11.1546 8.5Z" stroke="#2B2E34" stroke-width="1.7"/>
</svg>
